<mxfile host="65bd71144e" modified="2021-01-12T09:30:05.404Z" agent="5.0 (Windows NT 10.0; Win64; x64) AppleWebKit/537.36 (KHTML, like Gecko) Code/1.52.1 Chrome/83.0.4103.122 Electron/9.3.5 Safari/537.36" version="13.10.0" etag="iW3qwEixu03rI2Av9Q16" type="embed">
    <diagram id="Pdnnvu6QhJsoGhBcush-" name="Page-1">
        <mxGraphModel dx="737" dy="742" grid="1" gridSize="10" guides="1" tooltips="1" connect="1" arrows="1" fold="1" page="1" pageScale="1" pageWidth="600" pageHeight="1600" math="0" shadow="0">
            <root>
                <mxCell id="0"/>
                <mxCell id="1" parent="0"/>
                <mxCell id="3" value="" style="shape=image;verticalLabelPosition=bottom;labelBackgroundColor=#ffffff;verticalAlign=top;aspect=fixed;imageAspect=0;image=data:image/png,iVBORw0KGgoAAAANSUhEUgAAAXoAAAF3CAYAAACrPoBOAAAgAElEQVR4Ae2dCXBVVbrvd9WrenWr+nY/+6m02lxaL90or7CQxxPk3gYR0YYGgaZVQBHaKPMoCYEwBkhCGA0JQ4CEIRBmCGEGmecpQJgnZxDFCWfb6Xv1X7DSOzs5kJBz1k72+lue2uec7JNzvv1932/913+tHJyLFy/K66+/LtnZ2YL7kbpdu3ZNfv75Z6no/yEGxBKp62Tq95rIualYSvM+b7zxhsTFxUl+fn6Fz2Fp4sa5zLm9OXdYAGz60gKjIp9P0EdW0JXH2mDOs4Wgp7qzStmy6Qn68jgYReoz6VkcQU/QE/QRtCwj1cC383t109/Oayvyazi4U9HTr7UEchpUbHoqel0LNhz14E5FT0VPRW/JYKeb3gbAuWPk4E5FT0VvCeR047Ppqeh1Ldhw1IM7FT0VPRW9JYOdbnobAOeOkYM7FT0VvSWQ043Ppqei17Vgw1EP7lT0VPRU9JYMdrrpbQCcO0YO7lT0VPSWQE43Ppueil7Xgg1HPbhT0VPRU9FbMtjpprcBcO4YObhT0VPRWwI53fhseip6XQs2HPXgTkVPRU9Fb8lgp5veBsC5Y+TgTkVPRW8J5HTjs+mp6HUt2HDUgzsVPRU9Fb0lg51uehsA546RgzsVPRW9JZDTjc+mp6LXtWDDUQ/uVPRU9FT0lgx2uultAJw7Rg7uVPRU9JZATjc+m56KXteCDUc9uFPRU9FT0Vsy2OmmtwFw7hg5uFPRU9FbAjnd+Gx6KnpdCzYc9eBORU9FT0VvyWCnm94GwLlj5OBORU9FbwnkdOOz6anodS3YcNSDOxU9FT0VvSWDnW56GwDnjpGDOxU9Fb0lkNONz6anote1YMNRD+5U9FT0VPSWDHa66W0AnDtGDu5U9FT0lkBONz6bnope14INRz24U9FT0VPRWzLY6aa3AXDuGDm4G1b0Fy5ckKNHj8qqVaskMzNTsrKyZPPmzXLq1KkisDlz5ozs379fZs+eLTNmzJCcnBw5dOhQkfPcCS3tfT8KQF+D9evXy8GDBwVxej93fn6+rF69WsU9a9Ys2b59e7HXyPu60jw21fQ6Xp1z5HLhwoUqpvPnzxeKPYg537NnjyxdulTlErWMmg56zo8dOyYbNmxQMSPfuM2ZM0fV9IkTJwQ1oWs1yDkH45YsWSJ5eXly7ty5gph17Cb73KiiP336tKxYsULatGkjVapUkRo1akhMTIxs27at0EVAIRw4cEDS0tKkatWqcvfdd0vLli1l7ty5xV4wfeFKe/QD9Cj07OxsadeunSp+FIH7cyN2QPHFF19UcT/wwAMybNgw2bFjh3jB6H5dae+bAv3Zs2fVIN26dWupXLmyVKpUSRo0aCDJycmCetBNH7ScIx5AbNKkSfLUU0+puFHLU6ZMUQO8O19By/nGjRulT58+Kmbk+6677lJ9/NJLL6k61tALas7RW08++aTcf//90rhxY9XvELh+5two6KFuoOInTpyo4L548WIZO3asTJ06tdBFgMJfvny5dO/eXQ0MUP2TJ0+WUaNGFSoU94W7nft+gB7qrm3btnLvvffK9OnT1WivPzsKHwUxcuRIGT9+vKBh1q1bJ/369ZP58+cXOle/5naPpkB/8uRJpWqioqJUTjFgYSZz/PjxAsgjhqDlHJDHrAxgX7RokarblStXytChQ5XadcMuaDnH4A5Vv3fvXnXLzc1Vqn7evHmFhFpQcw5OzZw5U7Zu3aogDzGLPvYz50ZBj6ZHk+/bt0+pU0zvJkyYoFSPG1hHjhxRzTF48OCCaQ/ADziheYqb+rpfX9L7pkG/a9cuNWB17txZwR7TWbeiRyHs3LlTqV2AHQ2D6R0GQ8xmMFCWNLZbnWcK9MjltGnT5LHHHpP69evLE088oWCHa+H+jEHLOWodan706NHSqVMnFffTTz+tahgAxKCO+IOYc51XxIgBHRYG6hm9r3+GY9Byjn6FOEO/wrJB7OAVOAbW+Jlzo6BHcnXyAa6BAwfK8OHDlYfpLgB48fBxExIS1MXCz9auXSupqalqRlCcp+9+fUnvmwI9LBcAPSMjQyk8WFKxsbECheMFPVQAZjxQ/ogDwIAqBCwxsylpbLc6zxToMagj3latWkmPHj2ka9euEh0drRQe8qiLP2g5R5PHx8erXV1QdD179pRu3bopGw51ByggRwB90HKuaw+CDGoeM3bYkVrR6p8HLee6z9HXyD16HEIWg9zhw4cLetePnBsHPS4GRvIxY8ZIly5d1AXBqKcLH0UQqgBSUlKUOqhooEfBo9Ch7Hr16qUGt2effVYp202bNhXMUG5WAIAl1IJukrIeTYEeKm7ZsmWSnp6uBi0AEAPXkCFD1DqMXncIWs4xE8PayogRIxTsUN+YxWCgg4jBz5HDIOYccWEAR4wAHdaksAjtrdmg5Ry1DGGDeNHnWJdCnS9YsEDNZnSt+5Fzo6BHsUOhaiWHxTgoe0x1oGz1hcDoh2ZAk8DrQ9EAlIAdfM6KZt0gXkxfYV1gcerOO++UO+64Q2rVqqWgp1U9CgAL0/DnsX6BuLF4i5kMrpPX7vA2TmkemwK9N+e4FvAvMZPDbiLEjM8dtJwjbxAzUHdofsQJy6Z3794ql1rhBTHnyCfiAtxhW6B3ixNnQcu5nn0jZqzLQNRgRoONF4A9fq6vjek+Nwp6KFKoOUAPiceIj0VWLFC5QY8mAeigfuBZ4zG2pgH8sC/c6r80cPOea8q6AbARL9Qtmh2xYaEZU1o81gMcjih+XA9cJwxyeA2m/gC91+P0xlOax6ZA78054oV3nZSUpPKKa4PPHbScQ8TAp01MTFRHxAfgvfDCC0rx4THiDmLOdT6xAAkLY8uWLQUWnbtGg5ZzDfpx48YVrCXClnvllVdUz2vQ+5Fzo6AHzDGtgYWBhanHH39c2TcY7QA1TO8xzYcS0IuS+ryXX35Z+booDg0Hd9Hczn1ToPd+NgxWbo8eDYHBD8+jGHA9YGthGyLih0JwWzze33c7j02B3ptzbJPVKg+KJ6g5RzPDosTsDIoOtY6FaKw7YefRmjVrAptz1CNix0CH+N0zUdR3UHOOWQy4hV03zz33XMECPLYS43k/c24U9Ch+KDooWSzIYRqLpEOpAuB64QJTXRQE4DZgwAB1HlQgGuR2oBbqNX6BHqodqh7WBeKEHQV7BsDHbAXXA9cF16d///5qiykGwlBx3M7zpkDvzTk8S9hyiMeGnCOnsCaRS9QyajroOUc9Ikb0K+J3127Qcw7YY4cgBvTylHOjoL8ZkPQKPaZ57sK42WvK+jO/QO/93Lt371ajPQY4gNH780g8NgX6m3125nxNwVbjm12ncP2MOb++AB6u61na3+Nnn5cb0Jf2ooXj/PIC+nDEUtrfUR6avrSfORznM+f8UrNw1FFF+R26zwl6fqmZkRlEeWkMgp6gLy+1aOJzEPQXL6q/Vosj6Al6fntloGuAg7vhb680MYKV5j1YAFR3pamXin6uVncVPY7Sfn72OUHPf3jEEjWr4cCm5+Cua8GGox7c6dHTugn0tN3bzAQ9Qe+tiSA/Jujp0as/XgtykRcXG0FP0BdXF0F9jqAn6Al6y2wr3fRBhVqouDi406OnR28Z7Nj0VPShBoQgPq8Hd3r09Ojp0Vsy2OmmDyLQbhYTB3cqeip6SyCnQcCmp6LXtWDDUQ/uVPRU9FT0lgx2uultAJw7Rg7uVPRU9JZATjc+m56KXteCDUc9uFPRU9FT0Vsy2OmmtwFw7hg5uFPRU9FbAjnd+Gx6KnpdCzYc9eBORU9FT0VvyWCnm94GwLlj5OBORU9FbwnkdOOz6anodS3YcNSDOxU9FT0VvSWDnW56GwDnjpGDOxU9Fb0lkNONz6anote1YMNRD+5U9FT0VPSWDHa66W0AnDtGDu5U9FT0lkBONz6bnope14INRz24U9FT0VPRWzLY6aa3AXDuGDm4Z4uD5Lds2VKioqIE9226xcTESP369SUpKcmquJHjP//5z9KwYUN56aWXrLo1a9ZMHnroIWnTpo3Ex8dblXf2uX19rnPuZGdnS4sWLaRLly7q+8nx2JYbGr1OnTqSnp5uTcw6t7Vr15ZOL7eXBbOnWHXLnDJOhg/sI889+3cZP368VXlnn9vX5zrnyrqBsk1NTbVqCo+pXU5OjlJ2eXl51sUOZTt3Ror88PEZ626Xz+6V/jH9BFN69xQ/6PfZ5/b1uc45PXpLPXpYNlDzNoL+yrl9MqB/tHWgh2WHGV3QBzRvfPTouevG2l03BD1B7wViUB8T9AQ9QW+hdUNFf9EqVU/QE/QEPUFvDfRo3eRbk2s9O9M5p0dPj946n56KnopegzDoR4L+4kW1GBdH0BP0/IOpQCtdWje0bmjd0LoJNOTcilWrO/dzNtwn6Al6gp6gJ+gDPqMh6Al6gp6gJ+gJ+sDWgJ7FcTGWHj09+oCDTtszuun1Y1uOVPRU9FT0VPSBVXNekBP03F7JP422RNXp5udfxvIvY3UtBP1IRU9FT0VPRU9FH3CRQ9AT9AQ9QU/QE/SBrQFt13ExlouxXIwNOOi0NaObXj+25UhFT0VPRU9FH1g15wU5Qc/FWC7GWqLqdPNzMZaLsboWgn6koqeip6KnoqeiD7jIIegJeoKeoCfoCfrA1oC267gYy8VYLsYGHHTamtFNrx/bcqSip6KnoqeiD6ya84KcoOdiLBdjLVF1uvm5GMvFWF0LQT9S0VPRU9FT0VPRB1zkEPQEPUFP0BP0BH1ga0DbdVyM5WIsF2MDDjptzeim149tOVLRU9FT0VPRB1bNeUFO0HMxlouxlqg63fxcjOVirK6FoB+p6A0r+nPnzsmWLVtk0KBB0qRJE3n++eclNTVVDh8+XKyqunDhgpw5c0bmzJkjCxcuDHne7RaqHwWgr0FSUpKsXr1a8vOLVxk4b9u2bQIVtnXrVjl16lSx1+h2YzcF+u8+PCmnD2yQcSMHSOtn/iLN/vKE9OnaUXKyp8nXHxyXf149Xcg6wmM8v25ppmxZNU+unNtX6Oc/hGEGgt85oL8Z0KNuu3XrJo0aNZIWLVrIsmXLfMu5KUW/Y8cOGT16tIoZcePWqlUrGTp0qOzbt0/Onz9fqJaD1uc6582aNVO537RpU8j+jXSf65wb9ejz8vJk0aJFEh0dLX369JHu3bvL8OHDZenSpYUSD3ihGDAApKSkyIsvvigjRoyQ3bt3FznvdkGH1/kBesAbMderV08yMjIE18Qbw+nTp2XFihXSv39/ad26teTk5Mjx48eLnOd9XWkemwL9V5fzZfeGRdL5H22lX48oGRTdTaZOGCF7Ni6Wb6+cLATx7z48JR+e3y/zZ0yQLi+3k9Qxw+Tt49sLnVNRQI8G3rNnj6SlpUlsbKz07NlT1fuYMWMEIPTCzkTOddOXpk5u59z9+/fL7NmzpXfv3uoWFRUlHTt2lPj4eFXv7tiD1Oc658gx+IYbenjChAmyc+dOX3NuFPQHDx5UKhZgR2Fv2LBBXYRJkyYVgdiJEydk3bp16mJB/Q8ePLjCgx7qfdasWdKuXTupWbOmzJw5s1jQQ/VgpoPzEPvy5csrLOg/e/uwrF+WKe3btJQZkxJk6dw0ObwtRz57J68IwK+9d0SO7MyVYbE95W/PPC3jRg2ssKDHDCwrK0sJFeRy6tSpqtZHjRqlZrWAghuiJnJuCvTuuM6ePat6Hip348aNhWLGeUHqc7gPmKUnJiYqQQtxtmrVKiVswTI/c24U9LoAMIofO3ZMKfmxY8eqJtA/00eo+SVLlqiRcOTIkaphKrKiR5JRBBMnTpQBAwYolTdv3rxiQb9+/Xo1yGH2A1WEYqmoiv6Ds3tl3vTxUvuRGlL59/fIPb+7W6n1Q1tXyPcfFbZtPjy/T3asXSBvHtsqk8cNV6+rqIoe+QLUMXtr3ry5VKpUSapWraoU/oEDBwR2ha51HE3k3DTo0edQ96j57OxsZcO6Y8b9IPU5ehyzNQzsGOQxe4dVl5ycrJ73xm4y58ZBj+RD2b/22mvSuHFjiYmJURfEexFwHlQ/Rnz42bBwKirodQFgpIeKhxWD6Xwo0EMFnTx5UgG+ooP+rfxtsmzuZBk5qK/y6k/tXy+zp46RtLHD5eM3DxaC/fcfnZKvLuXLtXePSPrroyo06DF7GzJkiPTr109ZdAAA7DjYlZiheddcTOTcNOgRI+odNg6g5x3c0PNB6nPEg15fs2aNwBp9+OGHpVevXgryUPtexpnMuXHQI9natsF0bvLkyZKZmakUq7cQ8BjFUtFBr6fxGNhg2dStW1eqVasmWKyZO3eumt0UVwSYAVR00H/x/jF5/9QuOXf4DeXJf/n+MVkxf6q8njRYKXcs1rp9dyzGfnnpmExPiTDoY2PUGo33uofrMRQ9ZqLTpk2T7du3KwDs3btXNT4G+CNHjhTb+JHMuUnQA+BYf8I1gFV79OjRIvHqax2UPgfXEOv48ePVLAaD3PTp09UW7rVr1yru6Zj1UVtbkepznXOjoMc0DgHDq9Oj2YwZMyQhIaHIIg0uRFAKALEiZkzlkdAOHTpI/fr15dVXX1UqD+pdJ14fI10AphZjL53eLXk7cuX4nrXyzZUTcvXiAVk6J00mj4uXy2f2CFR8EEGPnKLJIWSQe0Bg8+bNKucAfXHgi3TOddPrGovkEfFCxQ8bNkzZUogt1PsFpc+R8ylTpqg+x6wNj7EOiX6HqPWjz3XOjYIeiU9PT1c7aKB04GVhJR4eHhQOthFiMNAXJCgF4C1wNLzbuoFPiak9rgGUEM6PdNObAj2U/LKsyYIdNLBwFmS8LtNTEpSq/+K9o3L20Cal+KH8AXxjij7C2yuRP+QZs1FYdth9g1rv0aOH5ObmCtS96ZzrpvfWYyQeYw1u5cqVKn7MaPR7wNoAB4LY5xjcFi9eLNh1A1WPBfhx48Ypexp2jp85Nwp67V9hhKtSpYpaoMLWKzQEPE0sXEHh79q1SxUGQI+LhwLFwICdCbpgwnH0Y3slPjcKHU2PogDcsegKGKAxtJeHa4XFmri4OLUwi7WKcMSsf4cp0GML5eHtK6XHq+2l6gNVpE7tmjIhMU7eO7lT7bxJGT1E7amHl69BD58eC7gYIHCeW/GH477JffQQNk2bNlW1DrsOfrVfOTcJesSIhUjE7+7bIPe55hUWXxs0aFCucm4U9IAMQIYiQPIxwuE+1I9euMGCFRZrNZBw8QA5qHytdvXPynr0C/SAODxcDGKICdM7AAADnnuKi/toDBxxHcoar/v1pkAPMH/zwXXLBtCGlYMtl9gzD79+5YJ02bNxiWB3joY4VP21947KF+8fVefp58N1BOgHRtij19cadXvo0CFV66h51LlfOTcJesSIXvf2bdD7HH2K3gbDwLfyknPjoNcN4D2iMHBx4F1qVes9J9yP/QK9Nw4UBmCAAS3cQPe+l35sEvShAA1/Hj49dt/gr2FDnRfu55WiNwR6fb29Rz9ybhL03nj1Y/a52T7XOS83oNeFYPJYXkBvMmb9XuUB9OEGeEl/n0nrRl/v8nDUTV8ePovJz2Bzn+ucE/T8mmJjSrqkII70eQT9xbDagCahfTvvRdAb/lKz20lSJF9jcwFQ0Zv5UrNI1m9pf7dWd6V9XUU/3+Y+1zmnoqeip6K35CuqddNXdHCX9vMT9FT0/IdHwvC1v5G2WsL9+2nd0Lop7WBRUc/XgzsVPRU9FT0VfaA9eyp6Knoqeir6QEPOrUS1unM/Z8N9gp6gJ+gJeoI+4DMagp6gJ+gJeoKeoA9sDehZHD16evT06AMOOm3P6KbXj205UtFT0VPR26roff4KBD8gS9DnB1a5h6onnXMqeip6OxU9QW8N9Kjoqeip6G1V9BH+PvpQCsvP57W68/Mz+PHeBD1BT9AT9NYoW4Ke1o36V9r9GG39fE+bR3p+1w2/68bP3jP53jb3uR7c6dHTo7fTo6d1Y81MhqCndUPrhtaNNcDT6s6kmi4P70XQE/QEPUFP0Af87wgIeoKeoCfoCXqCPrA1oGdx9Ojp0dOjDzjotH2im14/tuVIRU9FT0Vvq6LnH0wFVsV6BzCCPlscXISYmBhJTk4W3LfplpGRIR07dpTc3Fyr4kaOmzVrJrOnTbBOzX/+Tp7s2rBI2rV9XkaPHi2zZ8+25hYVFSXR0dGycOFCq+rd5j7XbHfi4uKkXr160rx5c6Vu8diWW4cOHeTBBx+Uvn37WhOzzu2f/vQnSRzWX/CvLdl0A+S7vdpe/qveY9KkSRNp1aqVNbfatWtLrVq1pGXLllbVu819rtnu5OfnyyuvvCIjR44U3LfplpWVJY0bN5YdO3ZYFTdy3LBhQ/lr0yYyIDZGBsbGyID+0Te/lfQ89+/B73X9bvU+rse3fE/37wrT/b+3biW1HqkpZ8+elc8++0yuXbtmze3q1asydepUNXtnn9vBOs12tRibkJAgmZmZ1nh22sNbt26ddO/eXY4ePWpd7LGxsZKYmGjVFB6W1ahRo6RRo0YK8mLhf7BtsCire8CGo819rtnOXTeW7rqxdQcGPHnYNVDyNv63ePFi60CPAR6WJWYxNgxs7hh1nxP0lheAuyhsuE/QE/Q21LmOkaC/eFHZFraP9LogbDkS9AS9LbWOOAl6gt7Kbywl6Al6gt6SvxDUiaZ3l22dZ0nQE/S6/204UtFT0VPRW7gay8XYi1aJG4KeoCfoCXoroMeZO7/rxvptVzZMX90x0rqhdeOuh6Dfp6Knoqeip6Knog/4uiRBT9AT9AQ9QU/QB3/Rgt4dd93Yxnouxgafa247ioqeip6K3jbKiwhBT9BbMY1zj3ZU9FT0trGeoCfoCfqA+3XuQU5P6dzP2XCfu26468aGOtcx6j7nl5rxS82sGuAJeoJeQ9CGI0FPj54evW2+DT16q0QNBjKCnqAn6Al6K8DHtTj+ZSz/MtaidQkoHFo3tG5ssGx0jFT0VPRU9FT0VPQBFzoEPUFP0BP0BD1BH/z9pvTuuI/eNtZzH33wuaZtGxyp6Knoqehtozx33VgxgyHoPdM0KnoqettYT0VPRW/daEfQE/QEffDBxz7n9kpur/TMctzTviDe5/ZKbq8MYl2HiokePT16evS2yXl69Na5Fr6A/sKFC3L06FFZtWqVZGZmSlZWlmzevFlOnTpVJAF4bvv27TJr1iyZMWOGLF26VPbs2VPkvFAjWUme92NKp6/B+vXr5eDBg3LmzJkiMR06dEhycnJU3LhOGzZskOPHjxc5ryQxhjpHF0Con4freR2vzjlyuXDhQpXb8+fPF4rJRM5NK/rLly/L3r17Vc0jj1euXJEffvihyBDzySefCPKO67Ru3TrVE19//XWR88r6hAmP/tixY6pmkWt9mzNnjqxevVpOnDghqAldXyZybrrPwSnwCr27ZMkSycvLk3PnzhXErGM32edGv9Ts9OnTsmLFCmnTpo1UqVJFatSoITExMbJt27ZCFwEA2LFjhwwbNkweeOABqVSpkjz55JNqqxDA6C4UfdFu52i6APAZUejZ2dnSrl07QfGjCNyfHQUxd+5cadmypYr7D3/4g3Tp0kU1TnHF4n5tae6bAv3Zs2fVoNW6dWupXLmyiqlBgwaSnJwsqAedS1M5NwX6X375RQF90aJF0qpVK7n33nulevXqsnz5cvn4448L8frHH38U1GL79u3VeX/84x9lwIABCvY//fRToXPL+sAE6Ddu3Ch9+vRRuUbv3nXXXVK1alV56aWXVF/rOjaVc1N9jloGn9Bb4NX9998vjRs3Vv0OgevuT9N9bhT0GOmg4idOnKjgjqIbO3asTJ06tdBFAPzmz58v/fr1U+pm9+7dMnPmTBk1apRSBcWpYPdFLOl9UwXg/jwY6du2basaevr06YVAj+RjgEOckydPVve3bNmi1hEyMjLCOqMxBfqTJ08qVRMVFaUgh/gwk8EMRUMe18dUzk2BHqodzQ2w79q1S9555x05fPiwpKSkqAEOcMd/OOJn06ZNUyrw7bffVtdl/PjxsmbNGrl06VJZ2V7o9SZAj8Edqh4zGdxyc3OVsp83b14hZWsq56b6HFzCrAX9C15t3bpVQR5iFrM0PcD50edGQY+mR5Pv27dPMJpjKjthwgSZNGlSIdDjguE82Dpa9a1cuVI1CWYEFRX0aHgAvHPnzgr2XkUP8EHxw7I6cOCAukZ4jIERFhZe7x40ynLfFOiPHDmiIPbYY49J/fr15YknnpChQ4cWicVUzk2B/ptvvhGoeUzf+/fvL82aNRPMajCbg50DxY//cIRF89Zbb8lHH30kP//8s+C1EDqw9959991CoC7rAxOg13WJesaAjmuAeNDT+mc4msq5KdBjgMNsBuIVlg1iB/gHDx6sZmxa2PjR50ZBj+Tq5MOeGDhwoAwfPlwpGXcBeO9DBcLrS0tLU6pWj4ze80r72FQBYFCDeoEqnzJlioojNjZWoHDwfKjPDVUErz4hIUFZXt7pX6jXleR5U6DHoI68wb7o0aOHdO3aVaKjo1U+4c/q4vd+5kjl3BTov/rqKzWoQ5mPHj1aDW5xcXGSmpqqlF1xPj0g/sUXXyivHrM9gPHatWtlZXuh15sEPUAONY8ZO9YebtW3kcq56T5HX8fHxwt6HEIWgxxmc94a149N9Llx0AN6UHljxoxR3jMuCEY9jIY6cH1EYcC/xzQIYMIinv5ZOI6mCgAFj0Lv1KmT9OrVSw1uzz77rGr+TZs2FTtDQWFg9gI1j+l+uBeiTYEesFq2bJmkp6cLZnRQORjshgwZUjBrcecy0jk3CXpAHbFiMAfY33vvPWXDAWhffvllIQDjARZkMZMDGFDrUP7h/s8U6DGA5+fnK9BhFrN///6QvRvpnJvqc7ANwgbxos8xg0OdL1iwQA3a+Lm71nHfVJ8bBT1gjmbXSg62DJQ9pjpoBveFABzh70HxQxVhSuS9SGV9bENfuPYAACAASURBVKoAEC+mr7AusDh15513yh133CG1atUqAIGORc94sJaB2PE6vF7/PFxHU6D35hyxYOBGbLCo3CrPRM5NgR52DOw2rLFgpw28+A8++EDFjbr79NNPCxiu7RtYlbD24Od+9913BT8P5x1ToEdeAXfYFhA5oWrYRM5N9TnYhoEdMcO2g6jBjAYbLwB7/Fz3r+k+Nwp6wBoXQsMLIz4KG56tG/QoEixE9ezZU50LNVuc4tcX7XaPpgoASUWhQ91i8EKzde/eXU1p8VgPcDgPgx92pCQmJhY0CJ6/3RhDvc4U6L05R7xYk0lKSiq01c5Uzk2B/vvvv1ezMFiOqF+AHzNZWFeYpeqtk4A8zkVP4FycA8hrDz+ckMfvMgV6rC1hwMKMHYNdcTVsKuem+lyDfty4cQWbRrAg+8orr6jrrkHvR58bBT1gjmkNLIynn35aHn/8cWXfYLSDT4XpPab5WISCr/kf//Ef8sgjjwi24zVq1EgtYkL1hAv6pgrAC1vE4Pbo0RBodCxO437Tpk3lwQcflLp166q4ETsGSO9ilvf3luaxKdB7c45to1rlQfGYzrkp0GNR9fPPP1e7zLA9FjnFgixgjp01qPe1a9cqAQAoPvfcc/Lwww9Lw4YN5ZlnnlE37Ni5evVqWFlvCvQYsLAgidm4exMBYGc656b6HAPXzp071a4b5BMbD8A5CDc8D/HqV58bBT2UKxQdFmewINe7d2+VdAAMxa4XLuBboyDxc/cN8Ic6wgUtDdRCnWuqALzvD18O8cG6QOFjRxH8XKxVwL9FnO64cR/nV8TFWG/O4VnCfwbo/Mi5KdBrOiNG7K6CssW6FETKt99+q7xZ5BTXAdsrAQCc475hW3FFXYxFXaOWIVwQo+4BP3Juss/BJgzQ2ECBvsXfQ4Bnfve5UdDrZBd3hFcHPwvTPHdhFHduuJ4zWQA3+8xoaIz2etvpzc4N189MKfqbfV4/cm4a9Br43uP777+v6hy+fbj/KMr7Xu7HGFyQ+5vlJZI/8yPn7HN+qRm/1IxfaubmYODv+w36SA4ioX53eQF9qM8Xyee1oCs3ij6SwYb63SwAfk1x4MnuCZCgD/7XMrt5R9Dz2yvVwri7KGy4X16sGw9/jT0k6Al633w7vwBDRU9Fb4yw5eSNCHqCnqC3yK/WUzq/Blm/3peK3t/FWD/yTkHHxVguxlo0uAEyBD1B78dg49d7akHHxdi4OPWdHH4lwq/31QXg1/v79b4EPUHvV+358b66zwl6gt4qy46gJ+j9AK5f70nQc9cNd92UkwVSkx+Di7FcjLVK2WGE5SINd92YhGx5eC+CnqAn6C1amNRTOr+mlH69L60bWjd+1Z4f76v7nB49PXqrBniCnqD3A7h+vSdBT+uGHn158FIMfwZaN7RurFJ2GGHp0dOjN8xZ39+OoCfoCXp69IGvAVo3tG78slH8eF9aN1T0tG5819fmPwAVPRV94NWcd0SldUPrxjxq/X1Hgp6gJ+hp3QS+Bmjd0LrxCr4gP6Z1Q+uG1o2/4tqXd6eip6IPvJrzjty0bmjd+EJbH9+UoCfoCXpaN4GvAVo3tG68gi/Ij2nd0LqhdeOjsvbrranoLVX0IH7Lli0lKipKcN+mW0xMjNSvX1+SkpKsihs5/vOf/ywNGzaUl156yaobYq5atarMmDFDLl265BdvfXvf9PR0lW+b+rxr167y0EMPSZs2bayqdfR27dq1VZ872dnZ0qJFC+nSpYtSeHhsyy0+Pl7q1KkjKH5bYtZxogA6vdxeFsyeYtUtfdJoGTagt7Rr10ZSUlIECteWW1pamnTu3Fl69OhhVb336tVLqlWrJhkZGdbkWte0zrn6UjMo29TU1MD7s14vLicnR43yeXl51sXerFkzmTsjRX74+Ix1t/dP75bnnm0tgwYNsmomh5x37NhRFixYYFW9T5kyRZ544gn5/PPPfZtJ+fnG8+fPF357paXfXolpHdS8jaC/cm6fDOgfrb7ryDv4B/kx7BrM6IIcY3GxcQF+MUEfR9BbB3uC3q4FSYKeoBeC3j7rhqAn6P20Uky/N/x6WjdU9FT0lvz9BK2ba6YZWy7ej6B/4w0qegsXY6noqejLBYENfQiCnqC3Ts1j8ZmgJ+gNMbZcvA1BT9AT9JbYNtiNQuuG1o2V265s/lIzbq/k9sritiIG8TnuuuFiLD16evTW7Cunoqeip6K3aAoP1UZFT0UfRPVeXExU9FT0VPRU9FT0ARc5BD1BT9AT9AQ9QV8udsdE6kNw1w133XDXTcAh57Yy6NHTo6dHb1HD06Pnl5q5B4Cg36d1Q+uG1g2tG1o3ARc5BD1BT9AT9AQ9QR8pe7xc/F569PTo6dEHHHJuW4YePT16evQWNTw9enr07gEg6Pdp3dC6oXVD64bWTcBFDkFP0BP0BD1BT9CXCy89Uh+CHj09enr0AYec25ahR0+Pnh69RQ1Pj54evXsACPp9Wje0bmjd0LqhdRNwkUPQE/QEPUFP0BP0kbLHy8XvpUdPj54efcAh57Zl6NHTo6dHb1HD06OnR+8eAIJ+n9YNrRtaN7RuaN0EXOQQ9IZBf+7cOdmyZYsMGjRImjRpIs8//7ykpqbK4cOHizTboUOHZObMmdK8eXNp1KiRxMTEyLp164qcVxY14se/GauvQVJSkqxevVry8/OLxIQ4ES/iRvy4DrgeZYnV+1pT/8LUdx+elNMHNsi4kQOk9TN/kWZ/eUL6dO0oOdnT5OsPjss/r54usI+unNsnKxekS5u//VWdN2rIa3JkZ27Bz38I06CE9xnQ38y/MLVw4ULp1q2bymWLFi1k2bJlvuXclHWzY8cOGT16tIoZNYxbq1atZOjQobJv3z45f/58QS2b6HPToN+5c6diXJs2bdTx7Nmz8t133xXx60+cOCHgwDPPPCNt27aVNWvWyCeffFLkvLI+Ydyjz8vLk0WLFkl0dLT06dNHunfvLsOHD5elS5cWJB5AwoXZtGmTKoyePXtKly5dpFevXpKSkiKnTp2SCxcuFDrfC7GSPvYD9Nu2bVMx16tXTzIyMgTXRH9exIX40tPTFegBCMTer18/Wb9+vbou+tyyHk2B/qvL+bJ7wyLp/I+20q9HlAyK7iZTJ4yQPRsXy7dXThZA/JsrJ+TkvnUyMXGQDI7pLv17d1LH+TMmyJfvHys0IJQV+CZAjwF9z549kpaWJrGxsYI6Rr2PGTNGAEINO5M5NwX6/fv3C+Dau3dvdYuKipKOHTtKfHy8qncdu6k+NwX6n376SS5duqRiHzFihOCGAW/evHny7rvvys8//6yY/csvv8i3334rubm56ucQvgMHDpSEhAQ5efKk/PDDD2Vle6HXGwf9wYMHlYoF2E+fPi0bNmyQCRMmyKRJkwpgB4DhZ1D+AN7Ro0fVDcp/8ODBhQqlrLAzDXqo91mzZkm7du2kZs2aSql7QX/8+HGZP3++Gt0x4m/fvl06deokSBaKoKwx69ebAv1nbx+W9csypX2bljJjUoIsnZsmh7flyGfv5BVAHuDGgHDm4EZZljVZPnnrkHz85kFZkPG6jE+Ik48uHJDvPzpV6PyywN4E6DFgZ2VlKXGC2p06daqq9VGjRqnaxkCAXAD0pnJuCvS6xnAEzDFzxcxm48aNherXVJ+bAj0ADV7NmDFDoOq/+uor9RiqHb2MgQD/AfT42datW+XYsWPyzTffyFtvvSX9+/eX3bt3q8eFSF3GB8ZBrwsAIzoCBPDHjh2rmkD/zH3UagewGzdunFIEuJB43n3e7d43CXo0Ngp+4sSJMmDAAKXyMNK7Qe+OAw2Cae2KFSuUqseUH/Bwn1OW+6ZA/8HZvTJv+nip/UgNqfz7e+Se390tXV5uJ4e2rpDvP/qXbaPBDSsHCv583huSOXm0TEoeqqBf3Ln6NaU9mgA94A2oY8YK+61SpUpStWpVpfAPHDhQbA1HOuemQY8+h7pHzWdnZ8uZM2eKrd9I97kp0P/444/yzjvvKFG2efNmBW9YVRB3eL64/zA4wK6BCIaqx/lQ++H8zxfQI/kI6rXXXpPGjRsriwJ2RnHQAtgyMzPlv//7vwX+5ty5c4ttkOJeW5LnTIEekMd0PTExUan4nJycW4Ie6gf21v333y9DhgxRCiFcAxyujSnQv5W/TZbNnSwjB/VVXv2p/etl9tQxkjZ2eLEAB+RXLZwujR//L2n37DNqNhBOyGNQMAF6zN6QN9husOiQfwzasG+WL19e7KAd6ZybBj36F+tLAC16PFT9RrrPTYEecAbskXtYdY8++qga6N9++2355z//WSy7MauBpVWtWjU1+8OAAMUfzv98AT2SrW0bTOcmT56sYA4F5C0EDAoY4fR5mBJhpITyKQnIb3WOKdCjkDGNx8AGy6Zu3boqsc2aNVODF2Y33s+K52BtTZ8+XdCgUPQYIL3n3e5jU6D/4v1j8v6pXXLu8BvKkwfIV8yfKq8nDZY3j20VLNa6Ffl3H56S907ulC2r5smiWSlq0RaLud9eOVHoPPdrSntfgT42RpD/271+t3od6nnkyJEybdo0Zb9hsN+7d69aa8JM7siRI0XeO9I5Nwl69C5mq7gGmLljJh7qmkW6z02BHjBHjtHrsF8xg4cPP378eGXPff/990X4/cUXX6hBH+dh1gPeXb16tch5ZXnCOOgxjVu7dq3y6gBreM6ANxYhUBRIOIoBz8O/WrBggbpAGACggnDBoIpCTQFDFVKo502BHrFCrWEqjwWqDh06SP369eXVV19V8WjvXTcHYsWABjjA20tOTlaqcNeuXSGbJVSMoZ43BfpLp3dL3o5cOb5nrWDB9erFA7J0TppMHhcvl8/sKfDer713VM4e2iRbcrPk83ePqMVXLNjOnpIsezctka8vH69QoEdOMUhDyCD3EDfIKXIO0Gvwmcy5SdAjXqj4YcOGhdxIYKrPTYEelgt6F2uLsOfwGCIPG0ng2cOLx39YlP3000/VOcg/vPuvv/5aWTzgIxZuw/mfcdAj8bgIWI2G0sEiFaYt8PCgcAB3DAa4SFABWJzAQi1eA9sDixoVUdF7YYsYsBNDe/TYXoqpPY7YqYF1CwwKWMDDDVstcW5FVPRQ8lhgTR0zTFk4WGCdnpKgVP0XN+AOxY8BYdf6RZI4tJ9kz5woy+dNkWkTR0r666OU5RN2RR/h7ZUY3JFn1CxqF7tvUOs9evRQKg/Kz3TOTYIes5OVK1eq+LHGpnsA4gUcMNnnpkAPxQ4xhveDqocoxRE1gOvxwQcfCGwcePKXL1+WOXPmKLbhPAwQ2KGDTSgVXtEjydgrCkVbpUoVtUCFrVdoCPhaWLiCwsfFwhQGW9GwgIWFrKZNm6qLogsmHEdTit77WVHoaHqMtBjgsOUUMEBjYLaCQQ5/Y4C4H3jgAbWegdd4f09ZHptS9NhCeXj7Sunxanup+kAVqVO7pkxIjFP2DHbepIweouwZePmwbGamJspD1f5T7r2nkvy9xV8U8EtrzdzqfBMevc4NRApqF7mEDwsI+JVzk6BHjLAbET96WV8PP/rcFOjhrQP2WFfE3wndd999UqNGDWXBfv7554pr4BsEnbZ5MMPDeagNiLs333wznGJe/S7jih7JBshQBEg+VA3uQ/3ohRuMblCumNLAttDnYQeKtjh00ZT16BfoMeDBw8X0FnHCi0cx6tkKnoeVheuD+KEG8Jqyxut+vSnQA7rffHDdsgHIodyx5RJePPx6/IHUno1LBLtz8Bxsm/dO7ZJ3T+xQi6bw+G8F7tL+HKAfGGGPXl9r1CxqV+cSde5Xzk2CHjGi1xE/7uvr4UefmwI9qArYw4aBKodqv3LlivpjKdg1iB29juuBRVvAHhYOzoPah1+P58P9ny+g1wn3HhE8AA/vMlwevPc9vI/9Ar33cwD6gAEGNu+CtPfccD02CfpQIMbeePj02DOPv5INdV64nzexGHurPPmRc5OgDxW/H31uEvQ3gzT2zn/88cdqIAj3zpqbvW+5An2owojk8+UF9JGMMdTvLg+gDzfAS/r7TFo3oa6/H8+XB9D7EXd5Af3NYBzJnxH0/JpiYyq6pBA2cR5Bf7HASvEDvKbfk6A3/KVmphN8q/ejop9C0Af8mxvdPUBFz++j5/fRW9TwaH5aN2a+vdINWr/vE/QEPUFP0Fuj7mnd0LqJpCde3n43PXp69NbA3e39E/QEfXmDcSQ/D0FP0BP0Fs3kaN3QuqF1Y1HD06M39y9M+e3Lu9+foCfoCXqC3hp1T+uG1k0krZLy9rtp3dC6sQbu9Ogvqq+7xlfhulW+Dfe5j5776CUuLq7Yf6w56A1g/fZKQ991U57qiNYNrRtaN7RurFH3yroh6K1R9lT0VPRU9B+fsQbw2r6hR0+Pvrz56JH8PPTo6dFbB3nAnqAn6CMJ1vL2uwl6gp6gt8iyo0dPj54evUUNjwVC6xdjI/xPCZanRVj9WQh6gp6gJ+itUfe0bmjdlDd7JZKfh9YNrRtr4K4XYunRcx99JKFaHn83QU/QE/QWzeRo3dC6oXVjUcPTo+d33Wjf3oYj99FzHz330du6j55/MMU/mCqPPksEPpOybvDP6cXExEhycrLgvk23jIwM6dixo+Tm5loVN3LcrFkzmT1tgpXWzeWze6Vb104CpWdTvXft2lWio6NV3IjdllufPn3k0UcflQ0bNsiJEyfk3LlzVt3GjBkjDr7rpV69etK8eXOlbvHYlluHDh3kwQcflL59+1oTs87tn/70J0kc1l/98RB2odhyA+SP7MiVvzZ5Wrp06WJV3pHzWjX+KK3+UseqW92aD8jdv/13qVOnuURFDZHo6AlW3Z58spU4+fn58sorr8jIkSPVl3vhsS23rKwsady4sezYscOamHVuGzZsKH9t2kQGxMbIwNgYGdA/+ua3kp7n/j34va7frd7H9fiW7+n+XWG6H/WPDlLn//1fiYp6Wc3k9PWw4YicT+39R7k2+1dW3Q4k/E/p1vhe+d+/OSm/+tU1+fWvv7Tq9rvfjREHizEJCQmSmZlpjWenF6DWrVsn3bt3l6NHj1oXe2xsrCQmJlplXcCmmTlzprzwwguycuVKOX78uFV5f/7552XhoAdFsh2rbufGOxLd7D759b9dFscR624PPDD3Ouht3XaFxoeVATWn4W/LkTm3L+f4a+jFQ6pbBXkMaraDvnp17roh6C3bVmrz4E7Q26noCXoqeutmMgQ9Fb1t9g1BT9AT9BbNaKjoqej5l7EWNTzWIejR06O3ZVGWHj09enr0lg1wtG5o3dC6YdNbY2VQ0VPRU9HbsdWSHj09emsGNr1tloqeip6KnoreGvBR0VPRU9FT0VsBPJvVHUFP0BP0BD1BH/DZDUFP0BP0BD1BT9AHsgZsnsVxHz330XMffcDBrhcj9ZGKnoqeip6KPpBqTkNOH21WdwQ9QU/QE/QEfcAVPkFP0BP0BD1BT9AHsgZsnsXRo6dHT48+4GDXdpU+UtFT0VPRU9EHUs1pyOmjzeqOoCfoCXqCnqAPuMIn6Al6gp6gJ+gJ+kDWgM2zOHr09Ojp0Qcc7Nqu0kcqeip6Knoq+kCqOQ05fbRZ3RH0BD1BT9AT9AFX+AQ9QU/QE/QEPUEfyBqweRZHj54ePT36gINd21X6SEVPRU9FT0UfSDWnIaePNqs7gp6gJ+gJ+oiA/sKFC3L06FFZtWqVZGZmSlZWlmzevFlOnTp10/c7dOiQbN++Xfbs2XPT8zTAS3r0A/T6Gqxfv14OHjwoZ86cCRkTrsuuXbvUNTp+/HjI80oar/s8U6DX8eqcz5gxQxYuXKjyef78+ZAxBSXnqNmlS5cK4p49e7bs37/ft5ybsm6+yHDk1FhHVkX/67ZxoCPHkhz5epYjv8x3pLhB5pPpjryd4sjlycX/vLjXlOS5c+MdiW52n/z630xZN3ifveI4628cPxPH+VFC/xOG34njvC+Oc14c5+ubnHd7A5PxfzP29OnTsmLFCmnTpo1UqVJFatSoITExMbJt27ZiGx6QAAjRJAMHDpRJkyYVe54bYKW57wfoT5w4oWyydu3ayZw5cyQvL6/YmM6dO6cAP2zYMOnXr5+6X5rYbnWuKdCfPXtWcnJypHXr1lK5cmWpVKmSNGjQQJKTkwX1gBy7P2tQcq7jQM0+9dRTKu6qVavKlClT1ADvjlnfj3TOTYH+9DhHRvzdkft+e/32u//lSPXfO9LzaUfemeTIj/MKg/yXbEd+yLo+KIx7wZFFPQv/vCQwv9k55kD/izjOD+I4C8RxWojj/Ekcp6U4znZxnGshAP7TDcCniuMkiOOcC3He7UEeg4tx0EPdQMVPnDhRwX3x4sUyduxYmTp1aqFm14UPyK9evVqB4fHHHw8E6KHu2rZtK/fee69Mnz49JOhxrQD5e+65Rzp37lxhQX/y5ElZsmSJREVFyfLly2XHjh0KdJiheCGPvAcl5zoOgH3RokUq7pUrV8rQoUNlw4YNAqjrOtfHSOfcFOgBbah6KHPc8hKuQ3zL4KKQB6Bx/tEkR5rUdKRpzYoMekD+qDhOujjOGnGcizcgnySOcyKEqr8kjgPIVxbHiQ0G6NH0sCv27dsnmLaj4CdMmFAswNEIOG/w4MHSs2dP6dWrV7Hn6Sa5naNpRQ8bZvLkyQrcgH0oRY/rNHfuXOnTp4/06NFD+vbtW2FBf+TIEZk2bZo89thjUr9+fXniiScU7HAtvDkLUs6RQ6j50aNHS6dOnVTcTz/9tGAmtXfv3iKDnImcmwK9VtewaL7KdGRdrCNbBztydVpRpf5jliMfTHFkYntHhv7NkeGtKzroz4jjzBHH2SOO85U4zjFxnNdvAByK363MvxXH2SSOM0IcZ8iNYwAUPRobKg5qDiCDHTN8+HDlYbqbHoMA1A0AMW7cOGXdYKpfUa0bxAOLJiMjQ03d09LSJDY2VubNm1dE0QN2UP2INSUlRb2mf//+FRb0GKwRb6tWrdSg1bVrV4mOjlY5xRqEVvVByzlqPD4+XuLi4pQ9CbHSrVs3NUuDwIClpWveVM5Ng/6fcx05kujIiteuK/afPJbNz/MduTTZkZzXHJnb9brqn9W5IoP+Z3GcT8VxtojjTBbHGSOOM08cZ+uN592Qh2e/TxxnkTjOwhszgORgKHoUNhoaKm/MmDHSpUsX1QywZ9yFD3WD6S5UL6a6gwYNUlN/eNV6NqCbpCxHU4oe03gsRkLZYWaCwe3ZZ59VsW3atKlgcU5fmwEDBigo4jzEDH8bA+OxY8cK4FCWuPFaUx49ZnDLli2T9PR0QV4BQNgZQ4YMkQMHDqh6wOcJWs7z8/MV1EeMGCG5ubmqvjGLwUCHxWj8HHGbzLlJ0EPNf5npyPzujmwf4siHU4uq+W9nO7JrmCOdGzkyqYMjE150pN9fHUl47rrK9w4MeqZQ2qM5jx5++wc37Jph4jgdb6h5ePRXxXHwc8AeA8Ln4jhjxXEGi+Ok3fDn/yGO84Y4zhce5e8eIEp/37hHD5ijobWSw2IcAAafHooXRY/ix3349nXr1pX77rtP7rzzTvnNb34jjz76qNqtc6tdOvgdJbmZAj0+L3YZwbrAYiTiueOOO6RWrVoKenpBFsoOHjb87OrVq8vdd98tv/3tb+Xf//3flX21cePGEsVVkthNgd6bc1yLmTNnqsEOO6kQcxBzjkV3iBnM2iBOECcsm969e6uaP3z4sIrbZM5Ngh4LroD76+2vq3pA3QvoT2dcV/sNqztS5S5HKv3Gkd/+ypH6Dzmyrr8j380p+hrv7yjJY3OghxWz/Abcd97YQZMnjtPlBvy/uQFwqPl3xHH6iePUFMe5RxznTnGc34jjDBXHOV2xQQ9QQc0Bemh4qBp41lDtbtAD+BgQoPjQHAsWLFDqKCkpqWCQKAnMbnWOKdDDnkC8ULeIB4vQ3bt3V4MZHusBDp8XjY8ZD7bhYQ0DtgfO9c56bhXbrX5uCvTenCNe2FLIJWDotm6ClHOIGCxCJyYmqiNixazuhRdeULuu8FjnyFTOTYIe2yhPjHFkyj8cuTCx+C2VsG4wAHw07bqCh/JP7ehIRqfrkA+1DbMkcHefYx70WTe8+X+K47wpjhMtjrNbHEeDHqocsIeqvyKOc0ocZ8kNdY/FXCzqll65h3qNcUUPmGdnZysLAwtT2EkD+wYghy2B6T2m+QCibgIcb7Zo6z6vtPdNgd77ufC3A26Pft26dWrww/NuCwvXC4oQ5+Jn3t9TlsemQO/NecuWLdUCO6AHGyeoOdeWzPjx4wVbaVHrWIhOSEhQs7Y1a9YYz7lJ0H8+05E98Y5kdXPkvdR/KXOAfWU/R/aPcORq+r+eB5hPj3VkXreK7NHDmnlXHGeaOM4r4jjNxHH+Jo4z68bzWJhde2M7pXtfvfb14ekHYDEWxQ9FB1sGC3KYxqLRAXYoHOzAmT9/vprquiGGn6MxAET382W97xfoMW2Hqod1ARWLbXepqakqPjfo8TOcg3P1VL+sMevXmwK9N+fw5uFRY2C3IeeoWViTqHWsvWBNxq+cmwQ9gI4981D12GqpFfY3sxyZ1/36LhzsttHP4wjw54++/hr382W9b07Ra6V+QBxnujhO/I0F2bPiOLB1DovjLL6x1dKt2vGzt26o/k/Cquah8o0reg2Z4o5YsMSi1ZYtW8K66Fjce+nn/AK9fn993L17txrIwrnQrH93qKMp0Id6fzzPnK8J6+aCm11r/Mwk6EPBGTtx8hKv2znuASDU+eF43izob2a54K9foeqxYKsXZm92fnh+Vq5Af6sijcTPywvoIxHbrX5neQD9rT5jJH5uc87LA+jDAe7S/o7yA/rwgDuUFx/qeYL+jTfUPme91S0SYCmvv5Og55ealRaYFfV8gn6xOAARm96+pmfO7cs5Fb2pLzXzR7lT0YfYV2/zNJ6gJ+grqkIv7eemoqeicZ5PiwAADHtJREFUp3UTYhAsr5ZTWT+XzYM7FT0VPf+FKcuAR0VPRV9aZVxRz6eip6KnordsgKOir15o73pFhXdpPjdBT9AT9AR9WP8Ir6zWUiRfT+uG1g2tG8uAR+uG1k1pVHFFPpeKnoqeit6yAY7WDa2bUNsQg/o8/2CKfzBljW2hLRGCnqAPKtBDxUXQE/QEvUUzGnr09Ojp0VvU8FC39Ojp0Vdk3700n50ePT16evSWDXC0bmjdhLI4gvo8rRtaN7RuLBroaN3QuqF1Y1HD07qJK/jHufUirQ1Hgp6gJ+gJeivUPa0bWjdBtWhCxUXrhtaNFXB3q3WCnqAPBcSgPk/QE/QEvUUzOVo3tG5o3VjU8PTo6dGXZntiRT+X2yu5vZLbKy0b4Gjd0LoJqkUTKi5aN7RuaN1YNNDRurHYukHya9euLQ0bNpSePXuqv5jEX03acIuJiZH69etLUlKSFfG6c9qyZUuJioqyLm6bc44+T+9xD7+P3ilf/6ZrKCUenud3yB13vCLO4sXVJS3tTuncuZr06NFDefXZ2dlWHOPj46VOnTqSnp5uRbzuvLZo0UK6dOliXdw25xyg79yqmiweUt2qW/LLv5eGNe6S+36XJFWrzhNYGbbcfv3rf0jTp1sJxjbBbf78Pyp1596KFvT7OTk50qZNG8nLy7POwoCyTU1NtS5um3Petm1b6dixo3WzuK5du0r16tXVDDYhIcGq+GvVqiUp4zr8C/RQ9pjaBx3u7vhsXphDrqHw3dfDhvvMOXNuQ53rGGHNz83oQ9DHxdm51Y6gt+/bK5lz+3JO0F+8KFR3VHda+dhwJOgJeqF1c9EqG4NNb1/TM+f25ZyKnoqeHr1Fe+gxYyHoCXoqeja9FTMa2nW062yw6XSMVPRU9FT0HNw5uAe8Bgh6gp6gD3iTa1Wnj7RuaN3QumHTU90FvAYIeoKeoA94k2tVp49sevuanjm3L+e0bmjd0Lrh4M5ZXMBrgKAn6An6gDe5nr3pIxU9FT2tGzY91V3Aa4CgJ+gJ+oA3uVZ1+simt6/pmXP7ck7rhtYNrRsO7pzFBbwGCHqCnqAPeJPr2Zs+UtFT0dO6YdNT3QW8Bgh6gp6gD3iTa1Wnj2x6+5qeObcv57RuaN3QuuHgzllcwGuAoCfoCfqAN7mevekjFT0VPa0bNj3VXcBrgKAn6An6gDe5VnX6yKa3r+mZc/tyTuuG1g2tGw7unMUFvAYIeoKeoA94k+vZmz5S0VPR07ph01PdBbwGCHqCnqAPeJNrVaePbHr7mp45ty/ntG5o3dC64eDOWVzAa8AX0J87d062bNkigwYNkiZNmsjzzz8vqampcvjw4SIFd+jQIZk5c6Y0b95cGjVqJK1atZKhQ4fKvn375Pz580XO10q1NMc33nhD4uLiJD/f3Eivr0FSUpKsXr262Pdet26dxMTEqLifeuopad++vSxYsECOHTsWlrhxjUypOx2vzjly+fLLL8uMGTPkzJkzcuHChYKYgpjzhQsXSrdu3VQuW7RoIcuWLQt8znfs2CGjR49WMSPfN+vfIOe8WbNmKvebNm2SU6dOFdS5ZpSJPvcF9Hl5ebJo0SKJjo6WPn36SPfu3WX48OGydOnSIhdh+/btMnjwYGnXrp107txZBg4cKOnp6YLfUZFBv23bNhVzvXr1JCMjQ8WjE6+PGOBwbQD4vn37Snx8vKxdu1ZOnjxZ5Drp15T2aAr0p0+fVnB74YUXpFOnTtKzZ09JSEiQ5cuXCwYB9+cOUs4R2549eyQtLU1iY2NV3MjpmDFjBCD01nCQcr5//36ZPXu29O7dW92ioqKkY8eOqo69/RvEnCPH4Btu/fv3lwkTJsjOnTt9ybkvoD948KBSsQA7ALBhwwZ1ESZNmlSo4aHy8DM0Bi4UoITXoHHcYCjrfdOKHjOHWbNmqcGrZs2aasaCwnfHAQCMGzdOAX7EiBGSmZmprsXx48cLned+ze3cNwV6xDx37lz529/+plTe1KlTi53JBC3nUHBZWVmSkpKiZq2IGw0/atQoNat1D3JBy7m7Hs+ePavyjZnNxo0bC9Vw0HKOGSpm6YmJiUrQomdXrVqlhC3Uux859wX0ugBQ2LAhAO+xY8cKmkD/DEcUR05OjrRu3VoqV64slSpVkieffFIB3zvdd7+utPdNgh5JRhFMnDhRBgwYoFTevHnzCil6FD5U+7Bhw6Ru3bpy9913yx/+8Afp0qWLgr27UEobq/d8U6DH4I73evjhh+Xee+9VMb344ouqARCv/lxByzmaHFDHjBX2I2q4atWqSuEfOHCgwLIKYs51TtHnUPeo+ezsbGXV6Z/hGLScoz8xW4MdjUEes3dYdcnJyep5HbvJnPsGeiQfzf/aa69J48aNlReNC6IvAo6A3ZIlSwRTPkzxcfEwtUXjAJaAvfv8271vCvS6ADDSIw4MYpjOe0GPa3PkyBEZMmSIKg58PqxpYB0BNk84ZzSmQL9r1y6ZNm2a9OvXTzZv3iyIafz48TJy5Eg5evRoAfCClnPMZJBHxI3coYZXrFihZqmoae3ZBjHnuh8RI+odNg563D2wB7HPERN6fc2aNQLAQtz06tVL5d7NLJM59w30SLa2bTCdmzx5srInoIB0IeBCwNKAfQMA4PmVK1cq9Q8rQzeJLqjbPZoCvZ7GY2CDZQO1Xq1aNcFiDWwN9yIrVA6aYu/evapoTpw4oRQR7C3v1Pd248brTIEe+YOqQ0xoAlyL6dOnq1kLfEs8h88TtJyjnjGYYZCDD404kVM0PgZ4DOg6f0HLuTufuAaYuWNQ1/HqY9ByDq4hVggZzGIwyKHWIdSwxoaf69hN5dwX0KPhETCAhUABAey+wOKce5EGz2/dulXtNEHD4NzFixcLdqpA6bsvmL5wt3M0BXp8fsSMGQkWqDp06CD169eXV199Vak8xIvPrwsfig/qF68DEPA6DYzbibO415gCvTfniAdWHWKChYGY8fmClnPEgyaHkEHuUbPIKXIO0GvwBTHnyCfixeAOG3L9+vWqlr11GMScT5kyRdU2ehjxQayi3yFq8RjXwGTOfQE9Eo+dM1hkBLjgZWFHCUY/AABwBxgAAIyMWIiFkkWzAAzw8yv69kokGg3vtm6wvRRTexxhzyBOxIu4ET+uA66HW/l7m6a0j02BvricY+sdIKgbPYg5xyCNPEOcwLLD7hvUeo8ePSQ3N1ep+6DmHLWIWsUsHPFjRqPrEzMb1EQQc47BDYIUu26g6iFosLECW6Vh52BGZzrnvoAeSUbAGOGqVKmiFqjgw6Mh4Gli4QoKH74ugI4LhgUsLGRhzz1gpwsmHEdTit77WVHoaHoUBQY4bDkFDNAY8PIQJ+LVC3i4Drge3t9TlsemQO/N+SOPPKK8a8RjQ84hbJo2bapyCbsOfnXQc466RIxYiET87toNcs61LY3F1wYNGpSLnPsCehQAQIYiQPIxwuE+1I9euMGCFRZrMb2BP63Pg7UTLstGA9Iv0AN+sKQQD+LE9A4AwICHa4HnES+uD+LHdcB5+nOH42gK9N6cY7aGZkc8NuQcsxb8UZDOJWK2IeeIEb2O+N21G/ScA/bobTCsPOTcN9CHghSKARcH3qV7hTrU+eF43i/Qez87CgMwAND1grT3nHA/Ngn6UJ+dOWfOQ9VGOJ+3uc/LHejDmdiS/q7yUgAl/bzhPK88gD6c8ZT0dzHn2WGdGZb0uvt5ns05J+j5pWb8UrOAf6GVF64c3M19p5X32vv1mKAn6Al6gt4KdU9F30ccwf/i8Pvo2fRs+oDXABU9FT1BH/Am904d2fT2NT1zbl/Oad3QuqF1w8Gds7iA1wBBT9AT9AFvcs7iLqqBjB49PXrj/8KUt/n8esxpvH3TeObcvpxT0VPRU9FT0dO6CXgNEPQEPUEf8Cb3zhap6KnoueuGTU91F/AaIOgJeoI+4E1OdceFOYKeoCfoCXoq+oDXAEFP0BP0AW9yKnoqeoKeoCfoCXoq+oDXAEFP0BP0AW9yKnoqeoKeoCfoCXoq+oDXAEFP0BP0AW9yKnoqeoKeoCfoCXoq+oDXAEFP0BP0AW9yKnoqeoKeoCfoCXoq+oDXAEFP0EtW1n/KoEGDBF/pacstIyNDOnbsKLm5udbErHMbExMjycnJ1sXNnDPnugdsOD711FMyanhbcT7++H/Khx/+Dxk9+m5p2bKl+treuLg4K44dOnSQBx98UPr27WtFvO681qtXT5o3b25d3Mw5c+7ug6Df//3vfy9NG/8f+f/O/hL8DwWUcQAAAABJRU5ErkJggg==;" vertex="1" parent="1">
                    <mxGeometry x="60" y="291" width="378" height="375" as="geometry"/>
                </mxCell>
                <mxCell id="4" value="" style="ellipse;whiteSpace=wrap;html=1;fillColor=#ffcc99;strokeColor=#36393d;" vertex="1" parent="1">
                    <mxGeometry x="200" y="430" width="40" height="31" as="geometry"/>
                </mxCell>
                <mxCell id="12" value="" style="ellipse;whiteSpace=wrap;html=1;fillColor=#ffcc99;strokeColor=#36393d;" vertex="1" parent="1">
                    <mxGeometry x="210" y="360" width="20" height="20" as="geometry"/>
                </mxCell>
                <mxCell id="13" value="" style="ellipse;whiteSpace=wrap;html=1;fillColor=#ffcc99;strokeColor=#36393d;" vertex="1" parent="1">
                    <mxGeometry x="210" y="520" width="20" height="20" as="geometry"/>
                </mxCell>
                <mxCell id="15" value="" style="rounded=0;whiteSpace=wrap;html=1;fillColor=#ffcc99;strokeColor=#36393d;" vertex="1" parent="1">
                    <mxGeometry x="210" y="380" width="20" height="140" as="geometry"/>
                </mxCell>
            </root>
        </mxGraphModel>
    </diagram>
</mxfile>